HIERARCHY
ROOT pelvis
{
	OFFSET 0.003123 -0.351407 0.012037
	CHANNELS 6 Xposition Yposition Zposition Zrotation Yrotation Xrotation 
	JOINT left_hip
	{
		OFFSET 0.058189 -0.092763 -0.026001
		CHANNELS 3 Zrotation Yrotation Xrotation
		JOINT left_knee
		{
			OFFSET 0.054695 -0.378753 -0.009396
			CHANNELS 3 Zrotation Yrotation Xrotation
			JOINT left_ankle
			{
				OFFSET -0.043453 -0.403059 -0.031876
				CHANNELS 3 Zrotation Yrotation Xrotation
				JOINT left_foot
				{
					OFFSET 0.047257 -0.057997 0.118216
					CHANNELS 3 Zrotation Yrotation Xrotation
					End Site
					{
						OFFSET 0.000000 0.000000 0.000000
					}
				}
			}
		}
	}
	JOINT right_hip
	{
		OFFSET -0.063267 -0.103908 -0.021250
		CHANNELS 3 Zrotation Yrotation Xrotation
		JOINT right_knee
		{
			OFFSET -0.044210 -0.362380 -0.016824
			CHANNELS 3 Zrotation Yrotation Xrotation
			JOINT right_ankle
			{
				OFFSET 0.015417 -0.410728 -0.020192
				CHANNELS 3 Zrotation Yrotation Xrotation
				JOINT right_foot
				{
					OFFSET -0.038812 -0.058328 0.119049
					CHANNELS 3 Zrotation Yrotation Xrotation
					End Site
					{
						OFFSET 0.000000 0.000000 0.000000
					}
				}
			}
		}
	}
	JOINT spine_1
	{
		OFFSET -0.002763 0.109891 -0.027618
		CHANNELS 3 Zrotation Yrotation Xrotation
		JOINT spine_2
		{
			OFFSET 0.009448 0.131853 -0.005940
			CHANNELS 3 Zrotation Yrotation Xrotation
			JOINT spine_3
			{
				OFFSET -0.011330 0.052235 0.028447
				CHANNELS 3 Zrotation Yrotation Xrotation
				JOINT neck
				{
					OFFSET -0.012164 0.165167 -0.031615
					CHANNELS 3 Zrotation Yrotation Xrotation
					JOINT head
					{
						OFFSET 0.024783 0.160452 0.020737
						CHANNELS 3 Zrotation Yrotation Xrotation
						End Site
						{
							OFFSET 0.000000 0.000000 0.000000
						}
					}
				}
				JOINT left_collar
				{
					OFFSET 0.046364 0.084944 -0.007220
					CHANNELS 3 Zrotation Yrotation Xrotation
					JOINT left_shoulder
					{
						OFFSET 0.119239 0.057728 -0.015461
						CHANNELS 3 Zrotation Yrotation Xrotation
						JOINT left_elbow
						{
							OFFSET 0.254123 -0.072151 -0.042459
							CHANNELS 3 Zrotation Yrotation Xrotation
							JOINT left_wrist
							{
								OFFSET 0.251987 0.023221 -0.002472
								CHANNELS 3 Zrotation Yrotation Xrotation
								JOINT left_index_1
								{
									OFFSET 0.101902 -0.008688 0.019351
									CHANNELS 3 Zrotation Yrotation Xrotation
									JOINT left_index_2
									{
										OFFSET 0.030149 -0.011154 0.001151
										CHANNELS 3 Zrotation Yrotation Xrotation
										JOINT left_index_3
										{
											OFFSET 0.006504 -0.021577 -0.002433
											CHANNELS 3 Zrotation Yrotation Xrotation
											End Site
											{
												OFFSET 0.000000 0.000000 0.000000
											}
										}
									}
								}
								JOINT left_middle_1
								{
									OFFSET 0.109398 -0.006328 -0.003981
									CHANNELS 3 Zrotation Yrotation Xrotation
									JOINT left_middle_2
									{
										OFFSET 0.026472 -0.015218 -0.004641
										CHANNELS 3 Zrotation Yrotation Xrotation
										JOINT left_middle_3
										{
											OFFSET 0.005022 -0.023347 -0.001911
											CHANNELS 3 Zrotation Yrotation Xrotation
											End Site
											{
												OFFSET 0.000000 0.000000 0.000000
											}
										}
									}
								}
								JOINT left_pinky_1
								{
									OFFSET 0.084047 -0.014539 -0.043750
									CHANNELS 3 Zrotation Yrotation Xrotation
									JOINT left_pinky_2
									{
										OFFSET 0.012124 -0.014448 -0.005375
										CHANNELS 3 Zrotation Yrotation Xrotation
										JOINT left_pinky_3
										{
											OFFSET 0.003798 -0.018853 0.000167
											CHANNELS 3 Zrotation Yrotation Xrotation
											End Site
											{
												OFFSET 0.000000 0.000000 0.000000
											}
										}
									}
								}
								JOINT left_ring_1
								{
									OFFSET 0.097444 -0.009268 -0.027345
									CHANNELS 3 Zrotation Yrotation Xrotation
									JOINT left_ring_2
									{
										OFFSET 0.023561 -0.016057 -0.001895
										CHANNELS 3 Zrotation Yrotation Xrotation
										JOINT left_ring_3
										{
											OFFSET 0.004257 -0.023548 0.000814
											CHANNELS 3 Zrotation Yrotation Xrotation
											End Site
											{
												OFFSET 0.000000 0.000000 0.000000
											}
										}
									}
								}
								JOINT left_thumb_1
								{
									OFFSET 0.040636 -0.017977 0.025611
									CHANNELS 3 Zrotation Yrotation Xrotation
									JOINT left_thumb_2
									{
										OFFSET 0.021637 -0.017639 0.011623
										CHANNELS 3 Zrotation Yrotation Xrotation
										JOINT left_thumb_3
										{
											OFFSET 0.024002 -0.008356 0.006548
											CHANNELS 3 Zrotation Yrotation Xrotation
											End Site
											{
												OFFSET 0.000000 0.000000 0.000000
											}
										}
									}
								}
							}
						}
					}
				}
				JOINT right_collar
				{
					OFFSET -0.047695 0.084339 -0.013400
					CHANNELS 3 Zrotation Yrotation Xrotation
					JOINT right_shoulder
					{
						OFFSET -0.102578 0.053524 -0.012669
						CHANNELS 3 Zrotation Yrotation Xrotation
						JOINT right_elbow
						{
							OFFSET -0.271150 -0.036492 -0.026467
							CHANNELS 3 Zrotation Yrotation Xrotation
							JOINT right_wrist
							{
								OFFSET -0.249267 -0.004533 -0.015325
								CHANNELS 3 Zrotation Yrotation Xrotation
								JOINT right_index_1
								{
									OFFSET -0.099881 -0.011783 0.019600
									CHANNELS 3 Zrotation Yrotation Xrotation
									JOINT right_index_2
									{
										OFFSET -0.030148 -0.011154 0.001151
										CHANNELS 3 Zrotation Yrotation Xrotation
										JOINT right_index_3
										{
											OFFSET -0.006505 -0.021577 -0.002432
											CHANNELS 3 Zrotation Yrotation Xrotation
											End Site
											{
												OFFSET 0.000000 0.000000 0.000000
											}
										}
									}
								}
								JOINT right_middle_1
								{
									OFFSET -0.107376 -0.009422 -0.003734
									CHANNELS 3 Zrotation Yrotation Xrotation
									JOINT right_middle_2
									{
										OFFSET -0.026472 -0.015218 -0.004641
										CHANNELS 3 Zrotation Yrotation Xrotation
										JOINT right_middle_3
										{
											OFFSET -0.005022 -0.023347 -0.001911
											CHANNELS 3 Zrotation Yrotation Xrotation
											End Site
											{
												OFFSET 0.000000 0.000000 0.000000
											}
										}
									}
								}
								JOINT right_pinky_1
								{
									OFFSET -0.082027 -0.017634 -0.043503
									CHANNELS 3 Zrotation Yrotation Xrotation
									JOINT right_pinky_2
									{
										OFFSET -0.012123 -0.014448 -0.005374
										CHANNELS 3 Zrotation Yrotation Xrotation
										JOINT right_pinky_3
										{
											OFFSET -0.003798 -0.018852 0.000167
											CHANNELS 3 Zrotation Yrotation Xrotation
											End Site
											{
												OFFSET 0.000000 0.000000 0.000000
											}
										}
									}
								}
								JOINT right_ring_1
								{
									OFFSET -0.095423 -0.012362 -0.027099
									CHANNELS 3 Zrotation Yrotation Xrotation
									JOINT right_ring_2
									{
										OFFSET -0.023561 -0.016057 -0.001895
										CHANNELS 3 Zrotation Yrotation Xrotation
										JOINT right_ring_3
										{
											OFFSET -0.004257 -0.023548 0.000816
											CHANNELS 3 Zrotation Yrotation Xrotation
											End Site
											{
												OFFSET 0.000000 0.000000 0.000000
											}
										}
									}
								}
								JOINT right_thumb_1
								{
									OFFSET -0.038613 -0.021074 0.025861
									CHANNELS 3 Zrotation Yrotation Xrotation
									JOINT right_thumb_2
									{
										OFFSET -0.021636 -0.017639 0.011623
										CHANNELS 3 Zrotation Yrotation Xrotation
										JOINT right_thumb_3
										{
											OFFSET -0.024004 -0.008353 0.006547
											CHANNELS 3 Zrotation Yrotation Xrotation
											End Site
											{
												OFFSET 0.000000 0.000000 0.000000
											}
										}
									}
								}
							}
						}
					}
				}
			}
		}
	}
}
MOTION
Frames: 6
Frame Time: 0.050000
0.221451 0.929013 1.081573 3.327035 39.107009 1.053914 -31.625716 1.867299 11.633154 29.264597 1.526483 -21.497205 34.761494 13.373431 115.634951 0.000000 0.000000 0.000000 26.932620 1.220148 -16.009031 -41.869195 -1.326379 4.208747 35.147113 -51.547433 107.064847 0.000000 0.000000 0.000000 17.702840 -6.910956 21.742943 -36.100457 -18.259911 -49.377328 25.030553 21.337305 38.337300 -5.809130 -1.046081 -25.179282 0.000000 0.000000 0.000000 103.630433 70.856653 -1.585108 78.961419 49.305495 63.575036 -61.421468 32.103155 -24.663339 10.775238 6.761119 53.743550 -23.815936 33.588635 -0.334892 40.341921 -2.666388 25.455428 0.000000 0.000000 0.000000 5.118495 9.748410 5.265833 12.636607 17.718397 49.983300 0.000000 0.000000 0.000000 86.730158 -6.896079 -32.217679 60.184313 -1.097527 -9.007718 0.000000 0.000000 0.000000 38.738016 -0.846027 -5.161950 52.257608 27.061359 93.703091 0.000000 0.000000 0.000000 18.761200 45.067161 39.209513 -1.691206 -14.921889 -4.903038 0.000000 0.000000 0.000000 -115.229066 30.931424 44.752836 -94.815016 5.416792 26.174948 -14.296027 -27.210272 4.779321 -17.714084 -6.823615 30.608205 4.275470 -36.147834 8.780939 -66.347211 6.620242 11.686536 0.000000 0.000000 0.000000 -18.477564 -0.267104 2.325654 -64.263745 7.939254 49.165775 0.000000 0.000000 0.000000 -76.705005 11.791400 -62.025088 -43.403626 1.209333 13.198479 0.000000 0.000000 0.000000 -45.181660 15.009261 -24.721825 -83.491631 -1.677219 22.267750 0.000000 0.000000 0.000000 -50.361086 -46.744199 55.045477 13.333525 26.404620 -3.398784 0.000000 0.000000 0.000000 
0.223335 0.928369 1.081573 6.482146 51.649102 3.686456 -29.249746 1.638451 14.887504 24.028104 0.520453 -23.353840 37.753241 8.264871 107.406963 0.000000 0.000000 0.000000 23.098067 0.697909 -18.146131 -42.297090 -1.610852 8.372021 48.078604 -56.750566 94.974130 0.000000 0.000000 0.000000 16.640035 -5.427338 16.758291 -39.148419 -15.413731 -41.109220 30.962517 33.199469 39.735915 -8.478447 -2.512048 -18.108496 0.000000 0.000000 0.000000 38.005788 63.953883 -63.806569 67.991277 63.153249 59.296562 -62.276613 24.763897 -20.956688 9.928472 7.148004 55.329355 -28.165749 32.949389 -1.728394 36.638233 -0.859342 26.184572 0.000000 0.000000 0.000000 0.959671 10.548878 4.627149 3.855207 23.076935 45.664722 0.000000 0.000000 0.000000 87.476238 -7.812201 -24.578969 87.260498 1.682972 -17.946782 0.000000 0.000000 0.000000 36.212341 0.907927 -2.199137 38.975523 41.633120 97.438498 0.000000 0.000000 0.000000 13.824798 45.092779 37.450204 1.760509 -16.240650 -7.431288 0.000000 0.000000 0.000000 -85.816129 41.466367 65.626784 -97.979103 19.436553 14.815163 -16.334142 -22.672582 4.303006 -20.709656 -6.825189 13.159065 -8.460086 -38.321491 15.486862 -81.408324 7.707885 5.142251 0.000000 0.000000 0.000000 -21.842680 7.280900 -2.223386 -101.320642 20.818944 30.080091 0.000000 0.000000 0.000000 -73.771998 19.970190 -74.197886 -40.930126 1.303029 9.437154 0.000000 0.000000 0.000000 -44.195284 26.944751 -35.472569 -84.600575 -5.675657 -3.538137 0.000000 0.000000 0.000000 -67.987289 -42.405677 63.083119 18.786088 29.508619 -1.088785 0.000000 0.000000 0.000000 
0.225220 0.927402 1.071014 11.459009 66.248636 7.722050 -25.376156 0.886990 18.140994 17.621371 -1.142107 -23.766527 41.571232 2.928616 97.123093 0.000000 0.000000 0.000000 17.495288 -0.349101 -20.245355 -40.015727 -1.323160 15.244713 69.086878 -59.078405 74.549824 0.000000 0.000000 0.000000 17.754039 -5.859075 13.620626 -42.395964 -14.423014 -33.930259 34.610902 34.483143 40.974521 -10.948421 -4.260694 -12.864164 0.000000 0.000000 0.000000 20.297265 47.833316 -75.069836 53.233393 71.110465 48.227559 -62.697169 19.105358 -18.445757 8.524950 7.060015 56.503653 -29.678051 30.717412 -2.218294 30.803846 1.044445 25.344822 0.000000 0.000000 0.000000 -2.633130 12.025193 4.116142 -2.658264 23.725268 39.141949 0.000000 0.000000 0.000000 85.670153 -8.258971 -21.075083 110.491295 6.046978 -22.086038 0.000000 0.000000 0.000000 32.957880 4.555049 1.083837 15.993052 56.707632 82.293729 0.000000 0.000000 0.000000 9.158652 43.155559 34.153796 4.319881 -14.279881 -7.970828 0.000000 0.000000 0.000000 -64.338397 38.654117 79.793697 -99.796121 30.443612 4.885583 -18.770569 -17.671638 3.992029 -22.330256 -7.567821 -1.979906 -22.643824 -36.782911 21.779527 -84.827145 6.578330 -7.142133 0.000000 0.000000 0.000000 -24.119022 14.273809 -6.591563 -123.568086 13.086029 -7.097167 0.000000 0.000000 0.000000 -67.302757 29.497370 -79.628392 -39.089339 1.098272 5.998503 0.000000 0.000000 0.000000 -44.712444 35.124656 -41.704166 -71.832108 -4.925572 -13.475009 0.000000 0.000000 0.000000 -77.526190 -36.177814 62.552852 22.639790 29.545227 1.389389 0.000000 0.000000 0.000000 
0.228989 0.926435 1.071014 14.032639 65.988582 9.992752 -24.656322 0.996239 18.965918 14.203133 -1.589672 -24.866542 42.963322 4.147784 96.398084 0.000000 0.000000 0.000000 16.741254 -0.313259 -19.672100 -41.080271 -1.680997 14.727247 68.598844 -60.660819 75.554913 0.000000 0.000000 0.000000 15.079842 -4.351007 12.730591 -40.104576 -10.994997 -31.812862 36.319749 40.473194 41.927797 -9.758096 -3.897230 -9.571589 0.000000 0.000000 0.000000 14.712380 37.675005 -74.436935 17.740640 74.111257 18.097603 -61.663318 13.413057 -14.780763 6.547583 6.988603 55.412980 -32.811133 28.428877 -3.313182 29.009710 1.342095 23.694061 0.000000 0.000000 0.000000 -5.919274 10.394684 2.639428 -7.692600 23.004021 32.439883 0.000000 0.000000 0.000000 79.796318 -9.189364 -15.174107 140.647872 12.052172 -23.101326 0.000000 0.000000 0.000000 27.024761 5.545207 2.435190 -16.313839 57.768236 50.553932 0.000000 0.000000 0.000000 5.207052 38.543299 29.777605 3.889686 -9.231195 -5.480953 0.000000 0.000000 0.000000 -49.342147 34.252648 85.016103 -100.022421 38.982358 -5.781724 -20.054096 -11.571202 3.114596 -22.829147 -7.618750 -13.861160 -28.448217 -30.948684 21.530002 -94.668717 5.204310 -21.439902 0.000000 0.000000 0.000000 -18.651335 19.378312 -9.665466 -124.159903 6.260441 -29.117299 0.000000 0.000000 0.000000 -60.730041 36.328647 -78.588692 -37.068497 0.882000 3.200250 0.000000 0.000000 0.000000 -35.841255 41.504454 -40.312396 -64.529960 -4.991637 -20.984880 0.000000 0.000000 0.000000 -82.890954 -30.345759 54.142021 33.112249 26.362637 7.560534 0.000000 0.000000 0.000000 
0.233700 0.925306 1.065735 14.788482 66.965352 10.631127 -23.012331 0.964515 19.624987 10.724039 -2.344406 -25.371606 44.385726 4.536888 95.240591 0.000000 0.000000 0.000000 16.286149 -0.381387 -19.517700 -41.690324 -1.935554 15.081672 69.580596 -61.717798 74.871228 0.000000 0.000000 0.000000 16.638797 -5.074829 12.598450 -43.656808 -13.597842 -31.802217 37.419761 38.937099 42.045241 -9.081937 -3.381110 -10.402959 0.000000 0.000000 0.000000 14.431140 38.379355 -72.552053 9.784624 73.365281 11.072101 -62.638164 12.240550 -14.197508 5.755262 6.450286 54.657780 -32.190864 27.743694 -2.977479 26.269119 1.969263 22.848503 0.000000 0.000000 0.000000 -7.279403 11.136089 2.449233 -8.395794 22.097564 31.238205 0.000000 0.000000 0.000000 79.017614 -9.524789 -15.247811 139.313306 19.438116 -32.059827 0.000000 0.000000 0.000000 26.538336 4.145937 1.553115 -9.668791 57.771864 57.016794 0.000000 0.000000 0.000000 5.334844 39.384741 30.400931 4.606033 -11.508658 -6.928895 0.000000 0.000000 0.000000 -48.741452 35.009534 83.106663 -99.402904 40.269143 -8.325790 -21.219452 -10.116719 3.046222 -20.703656 -8.297607 -17.145849 -29.590924 -26.134727 18.826483 -91.112287 5.361965 -22.931536 0.000000 0.000000 0.000000 -18.439217 24.577525 -12.982925 -121.418315 6.069447 -32.999641 0.000000 0.000000 0.000000 -57.256352 38.410543 -78.128940 -35.511026 0.733715 2.273201 0.000000 0.000000 0.000000 -33.632342 43.355724 -40.394782 -60.806933 -4.969315 -22.785610 0.000000 0.000000 0.000000 -83.030457 -29.089893 50.193752 34.391934 25.349154 8.379046 0.000000 0.000000 0.000000 
0.238411 0.923775 1.060455 34.234027 76.432665 29.429852 -19.363062 -0.104071 20.713348 2.570311 -5.027486 -22.951374 46.790059 3.364492 86.223017 0.000000 0.000000 0.000000 10.226413 -1.815062 -19.993564 -39.290377 -2.265225 20.122724 87.115874 -61.804019 58.071316 0.000000 0.000000 0.000000 13.108849 -3.463604 9.469898 -41.020239 -9.475481 -25.005706 37.512867 42.306541 41.685566 -8.820917 -4.629257 -5.302582 0.000000 0.000000 0.000000 10.258312 20.027876 -69.287026 -22.475978 67.522671 -16.741735 -60.854116 5.580808 -10.739943 4.256663 5.963471 53.331871 -32.592803 22.875308 -3.064029 22.250923 4.323418 23.946814 0.000000 0.000000 0.000000 -8.355361 9.471582 1.543637 -11.591159 22.420094 26.894654 0.000000 0.000000 0.000000 71.066377 -9.622620 -10.768466 164.219247 21.257061 -27.102174 0.000000 0.000000 0.000000 21.127224 5.081306 2.283752 -31.906889 54.909569 32.888423 0.000000 0.000000 0.000000 3.185116 34.273003 26.173797 2.892249 -6.659515 -4.023604 0.000000 0.000000 0.000000 -35.455117 23.767612 89.472691 -100.306864 48.611773 -16.376166 -19.886399 -5.883611 2.060073 -21.761787 -7.781541 -30.444076 -31.706824 -22.104380 18.058881 -96.306105 3.974221 -50.266537 0.000000 0.000000 0.000000 -13.770666 27.442941 -12.862363 -98.611830 4.603453 -60.607427 0.000000 0.000000 0.000000 -47.215530 45.865723 -73.705479 -30.790871 0.751404 1.664459 0.000000 0.000000 0.000000 -16.347052 47.632154 -30.960459 -60.094786 -3.596801 -27.538619 0.000000 0.000000 0.000000 -83.416423 -24.219338 42.270863 40.080359 21.940044 12.390011 0.000000 0.000000 0.000000 
